<svg width="144" height="176" viewBox="0 0 144 176" fill="none" xmlns="http://www.w3.org/2000/svg">
<path d="M134.243 87.5115C112.684 130.801 58.0788 130.447 30.4452 125.092C17.5615 117.119 11.2101 103.841 13.8907 83.9977C23.3755 20.8783 79.7263 28.601 79.7263 28.601L106.135 5.62865L112.289 43.5157C112.289 43.5157 127.407 55.3018 133.198 80.0293C133.771 82.4879 134.12 84.9919 134.243 87.5115Z" fill="#ED1C24"/>
<path d="M79.0777 134.607C58.8531 135.111 42.0049 132.236 30.4452 125.092C58.0788 130.447 112.684 130.801 134.243 87.5115C135.332 110.211 117.649 133.646 79.0777 134.607Z" fill="#B7272D"/>
<path d="M87.4307 47.937C83.0152 49.2729 74.1025 58.0758 61.3287 51.2879C48.5549 44.4999 28.3063 50.4255 29.0058 75.7586C29.7052 101.092 58.7768 94.2856 65.4455 89.3884C72.1143 84.4912 81.0575 87.9843 84.869 90.5997C88.6805 93.215 109.911 98.0875 115.916 81.3695C121.921 64.6515 111.726 40.5703 87.4307 47.937Z" fill="white"/>
<path d="M40.4903 75.2614C41.2669 70.8385 45.1593 67.4224 49.9381 67.3034C54.7168 67.1843 58.7924 70.4018 59.812 74.78C59.9195 74.1678 59.9673 73.5364 59.9495 72.8917C59.8031 67.5892 55.2743 63.4006 49.8341 63.5361C44.3939 63.6716 40.1024 68.08 40.2488 73.3825C40.2666 74.0272 40.3492 74.6554 40.4903 75.2614Z" fill="#1A1A1A"/>
<path d="M89.0832 74.0508C89.8599 69.6278 93.7522 66.2118 98.531 66.0927C103.31 65.9737 107.385 69.1912 108.405 73.5694C108.512 72.9572 108.56 72.3257 108.542 71.681C108.396 66.3786 103.867 62.1899 98.427 62.3255C92.9868 62.461 88.6953 66.8694 88.8417 72.1719C88.8595 72.8166 88.9421 73.4448 89.0832 74.0508Z" fill="#1A1A1A"/>
<g opacity="0.05" filter="url(#filter0_f_3_21246)">
<ellipse cx="72.0632" cy="154.654" rx="59.241" ry="8.5064" fill="#222222"/>
</g>
<path d="M36.5835 48.5646C35.9836 54.9022 30.4216 59.5594 24.1604 58.9668C17.8991 58.3742 13.3097 52.7561 13.9096 46.4184C14.5094 40.0808 27.4815 23.8788 27.4815 23.8788C27.4815 23.8788 37.1833 42.2269 36.5835 48.5646Z" fill="#A9EAFF"/>
<path fill-rule="evenodd" clip-rule="evenodd" d="M23.1686 56.3872C29.4298 56.9798 34.9918 52.3226 35.5917 45.985C35.7873 43.9177 34.8869 40.5727 33.5847 37.0033C35.3864 41.4829 36.8257 46.0041 36.5833 48.5648C35.9835 54.9024 30.4215 59.5596 24.1602 58.967C19.2454 58.5018 15.3606 54.9401 14.2073 50.3644C15.9459 53.648 19.2258 56.014 23.1686 56.3872Z" fill="#7ED1EB"/>
<defs>
<filter id="filter0_f_3_21246" x="0.822266" y="134.148" width="142.482" height="41.0128" filterUnits="userSpaceOnUse" color-interpolation-filters="sRGB">
<feFlood flood-opacity="0" result="BackgroundImageFix"/>
<feBlend mode="normal" in="SourceGraphic" in2="BackgroundImageFix" result="shape"/>
<feGaussianBlur stdDeviation="6" result="effect1_foregroundBlur_3_21246"/>
</filter>
</defs>
</svg>
